<svg id="Capa_1" data-name="Capa 1" xmlns="http://www.w3.org/2000/svg" viewBox="0 0 226.39 136.01"><defs><style>.cls-1{fill:#28c6f1;}.cls-2{fill:#1681df;}.cls-3{fill:#34cb9b;}.cls-4{fill:#1692e8;}.cls-5{fill:#bedf69;}.cls-6{fill:#1087e4;}.cls-7{fill:#44b08d;}.cls-8{fill:#27caf1;}.cls-9{fill:#1390e8;}.cls-10{fill:#0e82e0;}.cls-11{fill:#189ae4;}.cls-12{fill:#1ea7e6;}.cls-13{fill:#138de4;}.cls-14{fill:#287cc2;}.cls-15{fill:#18a2e8;}.cls-16{fill:#28c4f0;}.cls-17{fill:#0f85de;}.cls-18{fill:#118de6;}.cls-19{fill:#3cc096;}.cls-20{fill:#40b791;}.cls-21{fill:#37ca9a;}.cls-22{fill:#3acc9f;}.cls-23{fill:#3bc79a;}.cls-24{fill:#1aa2ea;}.cls-25{fill:#28c1f0;}.cls-26{fill:#50d3a5;}.cls-27{fill:#bade6d;}.cls-28{fill:#25bdf0;}.cls-29{fill:#1c7ed7;}.cls-30{fill:#b6dd6b;}.cls-31{fill:#4bcda7;}.cls-32{fill:#5ad49f;}.cls-33{fill:#189cec;}.cls-34{fill:#22b0eb;}.cls-35{fill:#22b1e8;}.cls-36{fill:#1fade7;}.cls-37{fill:#9ddd7a;}.cls-38{fill:#1195e5;}.cls-39{fill:#58ce92;}.cls-40{fill:#4ccf97;}.cls-41{fill:#1fb7ed;}.cls-42{fill:#48ce9c;}.cls-43{fill:#83d982;}.cls-44{fill:#a8de73;}.cls-45{fill:#49cb94;}.cls-46{fill:#43cea0;}.cls-47{fill:#54d093;}.cls-48{fill:#74d78e;}.cls-49{fill:#4ba686;}.cls-50{fill:#b4dd6b;}.cls-51{fill:#6bd797;}.cls-52{fill:#3085b3;}.cls-53{fill:#82db81;}.cls-54{fill:#63d69a;}.cls-55{fill:#46c999;}.cls-56{fill:#78d990;}.cls-57{fill:#217cd1;}.cls-58{fill:#1287df;}.cls-59{fill:#8edb7a;}.cls-60{fill:#51d0a7;}.cls-61{fill:#81d98a;}.cls-62{fill:#9cdb74;}.cls-63{fill:#5cd49e;}.cls-64{fill:#92db77;}.cls-65{fill:#56d2a2;}.cls-66{fill:#6bd791;}.cls-67{fill:#42c59b;}.cls-68{fill:#58cd93;}.cls-69{fill:#81d98e;}.cls-70{fill:#179bec;}.cls-71{fill:#89da7f;}.cls-72{fill:#1e9bea;}.cls-73{fill:#23aae8;}.cls-74{fill:#21abe7;}.cls-75{fill:#26b5ee;}.cls-76{fill:#c5dd71;}.cls-77{fill:#2cc7f3;}.cls-78{fill:#3fcb9f;}.cls-79{fill:#1982db;}.cls-80{fill:#1785d9;}.cls-81{fill:#95da85;}.cls-82{fill:#bfdc6e;}.cls-83{fill:#2bb1e7;}.cls-84{fill:#18afeb;}.cls-85{fill:#267dca;}.cls-86{fill:#a9dc6f;}.cls-87{fill:#248ad8;}.cls-88{fill:#19b4ee;}.cls-89{fill:#1994e5;}.cls-90{fill:#1d84d7;}.cls-91{fill:#54d09d;}.cls-92{fill:#4cae82;}.cls-93{fill:#5fa472;}.cls-94{fill:#2195de;}.cls-95{fill:#0f87e3;}.cls-96{fill:#93db8f;}.cls-97{fill:#1e8bdd;}.cls-98{fill:#238ed6;}.cls-99{fill:#37c3ea;}.cls-100{fill:#2c95de;}.cls-101{fill:#70d691;}.cls-102{fill:#2da4e0;}.cls-103{fill:#2caded;}.cls-104{fill:#37a3dc;}.cls-105{fill:#47b7da;}.cls-106{fill:#22bdee;}.cls-107{fill:#19a6e6;}.cls-108{fill:#27c1ef;}.cls-109{fill:#22b8ec;}.cls-110{fill:#1295e3;}.cls-111{fill:#159ce5;}.cls-112{fill:#108ee2;}.cls-113{fill:#20b2eb;}.cls-114{fill:#28c7ef;}.cls-115{fill:#25c8f3;}.cls-116{fill:#1bafeb;}.cls-117{fill:#2fc4f4;}.cls-118{fill:#1398e9;}.cls-119{fill:#1799e7;}.cls-120{fill:#c0de65;}.cls-121{fill:#b6df64;}.cls-122{fill:#0c89ea;}.cls-123{fill:#2acaec;}.cls-124{fill:#23abe8;}.cls-125{fill:#0c8ae9;}.cls-126{fill:#0f8ae0;}.cls-127{fill:#24caf1;}.cls-128{fill:#3cbb92;}.cls-129{fill:#1ba7ec;}.cls-130{fill:#badd65;}.cls-131{fill:#25b4f1;}.cls-132{fill:#217ed1;}.cls-133{fill:#aedc6a;}.cls-134{fill:#41c8a0;}.cls-135{fill:#1caef2;}.cls-136{fill:#1eaef2;}.cls-137{fill:#93dc7e;}.cls-138{fill:#53cf8b;}.cls-139{fill:#4dce8e;}.cls-140{fill:#4ed190;}.cls-141{fill:#adde6c;}.cls-142{fill:#9eda80;}.cls-143{fill:#40c892;}.cls-144{fill:#8ddb7f;}.cls-145{fill:#2678d0;}.cls-146{fill:#a1db6d;}.cls-147{fill:#1aa2e6;}</style></defs><title>isolo_nexo_sur</title><path class="cls-1" d="M23.84,25.29c-3.25-2.34-4.08-1.56-4,2.43.19,23.14.14,46.29.14,69.43,0,3-.15,6-.23,9a.91.91,0,0,1-1.34-.44c-.78-1.55-.64-3.25-.77-4.91-.1-2.27.08-4.53-.07-6.8-.1-2.65.14-5.3.06-8,0-4.84-.23-9.68,0-14.52-.14-3.29.06-6.58,0-9.87-.1-1.18.08-2.36,0-3.54-.14-2.91,0-5.81,0-8.72s.07-6,.07-9.07a7.81,7.81,0,0,1,0-1c.29-3.85.81-7.8-4.16-9.29a42.61,42.61,0,0,1,2.18-8.8,2.09,2.09,0,0,1,2-.42,1.35,1.35,0,0,1,.62.68,3.21,3.21,0,0,1,.14,1.42,4.41,4.41,0,0,0,.09-1.08c.66-.89-.07-2,.37-2.87a4.11,4.11,0,0,1,2.39-1.23c.45-.5,3.12.87,1.35-1.43-1.93-2.51-.87-3.88,1.61-4.08,4-.31,2.87-3.91,4.18-5.88.72-1.09-.89-1.51-1.75-1.82C24.82,3.82,22.94,3.15,21,2.65c-1.09-.29-1.79-.91-1-2.14,4.26-.7,7.92,1,11.11,3.41,4.78,3.54,9.23,7.52,13.82,11.31-4.73,2.85-8.09,7.16-11.58,11.26-1.66,2-2.56,2.53-3.57-.26-.86-2.38-2.12-.13-3.17-.27A4.34,4.34,0,0,1,23.84,25.29Z"/><path class="cls-2" d="M129.16,82.15A121.1,121.1,0,0,1,143,93.08c-.55,4.22-1.25,4.31-6.13.79-.49,1.83,1.29,2.5,1.85,3.77s1.32,2.48.11,3.63-2.44.61-3.55-.29a13.24,13.24,0,0,0-3.64-2.56c1.66,1.85,3.36,2.88,2.89,4.79-.54,2.22-2.64,1.49-4.08,2a7,7,0,0,1-3.34.75c-1.64-1.9-4.23-2.27-6.11-3.77a33,33,0,0,1-7.15-5.82c-.26-.49-.15-1.24.21-1.24,6.08,0,8.23-6,12.71-8.34,2.43-1.29.65-3.19,1.09-4.73A1,1,0,0,1,129.16,82.15Z"/><path class="cls-3" d="M218.94,67.24a.56.56,0,0,1,.15.64c2.67,2.94,3.1,7,5.13,10.27v0c1.64,6.33,1.22,12.8,1.24,19.23a8.86,8.86,0,0,1-.18,3.45c-.47,1.13-.63,3-2.35,2.71-1.94-.32-1.12-2.07-1-3.27.14-1.47.7-2.89.41-4.85-3.89,1.65-7.61-1.61-11.5.06-1.69-2.49-.15-5.69-1.8-8.19l-.2-1.95c2.91-2.14,5.1-4.39,2.79-8.43-.9-1.57-2.07-3.85.26-5.32s3.43,1,4.87,2.17a1.18,1.18,0,0,0,1.47.32c-.86-2.24-3.32-4.31-1.3-7.06A1.64,1.64,0,0,1,218.94,67.24Z"/><path class="cls-4" d="M95,55.18a15.53,15.53,0,0,1,5,3.91,1,1,0,0,1,.3.83c0,.3-.09.45-.16.45-.9,1-2.52.79-3.58,2.18.93,2.26,5.11,2.76,4,6.36a14.93,14.93,0,0,1-3.91,6.74c-1.81,1.71-1,4-1.84,5.89a187.44,187.44,0,0,1-19-15.1c-.42-.92.14-1.26.88-1.5,2.5,1.24,4.55,2.37,7.13-.69,2-2.38,3.9.83,5.94,1.94-2.83-2.15-2-5-1.93-7.74-.35-1.08-.8-2.16-.16-3.28C90.15,54.5,92.58,55,95,55.18Z"/><path class="cls-5" d="M132,62.06c-7.35-4.14-13.13-9.69-16-17.84l.22-.73a20,20,0,0,0,.48-4.93c.32-5.43,1.35-6.61,6.94-7.94,5.62,1.26,6.76,3.11,4.19,8.06-1.73,3.34.62,6,.63,9,.11,1.13-.3,2.71.65,3.28,3.34,2,3.33,5.27,3.58,8.49A2.69,2.69,0,0,1,132,62.06Z"/><path class="cls-6" d="M128,82.27c1.73,2,4.85,4.08-.58,5.43-1,.25-1.82,1.39-2.61,2.23-3,3.22-5.87,6.65-10.9,6.46L111,94.34c-.81-2.52-4.19-3.1-4.53-6a2.33,2.33,0,0,1,.49-1.28c2.61-.68,3.53,2.68,6,2.55.86-2.07-1-2.89-1.81-4.12-2.4-2.83-1.41-5,1.69-6,2.47-.77,4.24-2.34,6.22-3.74,2.28-.47,3.22,1.93,5.07,2.39l0,0C125.19,79.68,126.78,80.78,128,82.27Z"/><path class="cls-7" d="M161,47.3h25c-.91,3.25-3.78,2.38-5.68,2.13-5.39-.69-9.45,1.54-13.28,4.82-.66.57-.8.36,0,1.19,1.94,2.08,1.62,4.8.93,7.41l-7,0a17.27,17.27,0,0,1-8.48-4.25c-4.15-4.51-4.18-5.65-.5-10.14.8-1,1.77-.64,2.71-.74C156.74,47.51,158.92,48.25,161,47.3Z"/><path class="cls-8" d="M20,.5c2.38,1.58,5.13,2.12,7.82,2.89s3,2,1.13,4.06c-1.29,1.43,1.24,2.17.22,3.55-1.67,2.28-4.13,2.35-6.87,2.34.67,2.64,3.12,2.95,4.11,4.6C24.6,20.11,22.79,19,21,18.23c-1.52-.29-2.26-1.42-2.9-2.66-.88-1.37.42-3-.57-4.35C14.29,10.28,11,9.89,7.73,9,6.1,8.52,4.93,8,5.89,6,9.71,1.92,14.34-.1,20,.5Z"/><path class="cls-9" d="M94.9,81.53c-1.57-2.33-1.64-4.5.7-6.41,1.85-1.51,2.79-3.62,3.79-5.71.86-1.8.57-3.13-1.33-4-1.45-.69-4.12-.38-3.46-3.07.72-2.92,3.38-1.89,5.39-2.08,1.63,0,2.68,1.15,3.85,2l1.13,1c1.82,1.19,3.19,3,5.28,3.82l5.91,4.69c-3,1.9-4,6.68-8.76,5.92-1.08-.17-1.77.7-2.39,1.5s-1.6,1.94-2.38,1.25c-4.2-3.73-4.18.94-5.63,2.68Z"/><path class="cls-10" d="M104.49,127.39,91.06,116.94a4.63,4.63,0,0,1,.54-4,2.9,2.9,0,0,1,1.68-1.16c6.08,2.64,5.58-3.69,8.08-5.94.71-.88,1.15-2.21,2.72-1.69,1.36,1,3,1.67,3,3.71,1.46,5.47.54,11.14,1.33,16.67C108.88,127.72,107.11,128.28,104.49,127.39Z"/><path class="cls-11" d="M69.9,100.41,62,94.17c-.6-1-1.58-1.8-1.5-3.12,1.87-1.11,3.35-2.35,3.9-4.75s2.33-3.85,5.17-2.91a4.64,4.64,0,0,0,5.29-1.46,1.58,1.58,0,0,1,1.94.34c3.25,2.41,7.39,3.82,9.12,8a4,4,0,0,1-2.06,1.7,10.56,10.56,0,0,1-4,.84c-4,.64-8.05,1.08-8.53,6.42C71.28,99.84,70.55,100.21,69.9,100.41Z"/><path class="cls-12" d="M54.85,88.54a12.82,12.82,0,0,1-5-3.94c-4.55-5.34-4.55-5.34,1.47-13.3,2-1.08,3.17-3.14,5.12-4.28a1.54,1.54,0,0,1,1.28.23A64.88,64.88,0,0,1,69.09,76a1,1,0,0,1,.28.82q-.07.44-.17.44C65.75,76.67,61.79,80,58.74,76c-.49,1.9.81,2.3,2.31,2.65a2.64,2.64,0,0,1,2.37,2.73A2.56,2.56,0,0,1,60.93,84C57.46,83.78,56.5,86.54,54.85,88.54Z"/><path class="cls-13" d="M96.88,98.26,98,99.35a.89.89,0,0,1-.07,1.22c-1.61,1.11-3.78.91-5.28,2.41s-2.81.32-4-1c.56,3.16,3.29,1.35,4.71,2.39a2.7,2.7,0,0,1-.92,3.62,11.27,11.27,0,0,0-2.11,2.35c-1.81.56.61,1.28,0,1.92a3.31,3.31,0,0,1-2.43,2.22l-5-4c-2.37-2.43-4.8-4.8-8-6.22h0c-.32-1.46-2.76-1.6-2.22-3.59,1.45-3.31,4.48-2.75,7.16-2.77,2.87,0,5.57-.15,7.1-3.1,1.46-1.58,3-1.8,4.68-.3A36.1,36.1,0,0,0,96.88,98.26Z"/><path class="cls-14" d="M154.06,101.93a52.23,52.23,0,0,1,10,7.85,11.79,11.79,0,0,0,6,4.89c1.29.43,2.52,1.18,2.19,2.81a2.51,2.51,0,0,1-3.09,1.87c-8.22-2.25-16.57,1.93-24.74-.61a1.93,1.93,0,0,1-.7-1.24c2.41-3.84,4.22-8.25,9.73-8.84a2.12,2.12,0,0,0,1.52-3.11C154.43,104.41,153.08,103.46,154.06,101.93Z"/><path class="cls-15" d="M54.85,88.54c-.3-4.07,1.39-6,5.64-5.44A1.81,1.81,0,0,0,62.58,81c-.17-1.1-1.06-1.5-2.22-1.4-4,.36-4.56-1.16-2.3-4.25.8-1.1.61-1.06,1.78.49a3,3,0,0,0,4.3.8c1.91-1.31,3.36-.48,4.85.64,2-.59,2.57,1.62,4.08,1.94l0,0c.06,1.4,2.48,1.29,1.95,3.06.2,4.18-2.79,3.2-4.73,2.47-3.82-1.43-5.11.6-5.3,3.6s-1.85,3.06-4,2.95c-1.72,1.2-2.76-.51-4.09-1Z"/><path class="cls-16" d="M.32,127.09Q.2,99.46.08,71.83,0,47.18,0,22.52c0-2.47-.32-5,1-7.29a.94.94,0,0,1,1.24.1c1.23,2.25-.2,4.49,0,6.75.13,1.78.13,3.57,1.27,5.13,1.66-.53.93-2,1.35-2.88s.54-2.11,1.74-2.08c1.58,0,2.1,1.36,2.43,2.68.76,3-.27,6.28,1.24,9.2-.75,3.14-3.18,3.21-5.69,3.11-.64.34-2.16-1.61-2,.38.49,5.18-.8,10.29-.29,15.46,0,1.9.17,3.8.08,5.7,0,4.82.21,9.64.08,14.46S2.73,83,2.43,87.94c.1,2.72.14,5.44,0,8.15,0,3,.14,5.94,0,8.92,0,1.76.12,3.52,0,5.28-.12,3.75.14,7.51-.07,11.26a11.52,11.52,0,0,1-.7,5A1,1,0,0,1,.32,127.09Z"/><path class="cls-17" d="M1,127.16l.1-5c1.69-1.34,4.6-1.58,4.19-4.85-.1-.77.67-1.56,1.38-2,1.79-1,2.46-4.34,5-3.25s1.06,3.81,1.18,4.71c-.8-3.3,2.33-5.49,5.12-7.87a1.56,1.56,0,0,1,1.31.25c-.62,2.89,2.65,6.67-2,8.86-.21.1,1.34,4-.2,6.15h0c-3.38.14-4.48,3.56-7,4.91a29.56,29.56,0,0,0-6.6,5.27C-.64,133.09,1.34,129.73,1,127.16Z"/><path class="cls-18" d="M97,83.16c.67-1.9-1.2-4.65,1.38-5.77,2-.86,3.8.14,4.19,3,2.16-2.43,2.69-6.79,6.74-3.39.62.52,1.8-.43,1.77-1.21-.15-3.79,2.62-3.64,5.07-4A5,5,0,0,1,119,74.1a1.53,1.53,0,0,1,0,2.12c-1,2.34-2.14,4-5.21,4.15-3.28.16-4,2.18-1.79,4.85-1.28,1.65-3.63.58-5,2v1c-2.44.63-4-1.31-6.05-2Z"/><path class="cls-19" d="M190.89,47.63c3.48.9,7.17,1.17,10.27,3.28.3,2.08-2.46,3.53-1.15,5.92.3.55-.41,1.78-1.14,2.06-2.9,1.12-5.48,2.56-7,5.42L182,62.83a2,2,0,0,1-.3-1.31c.78-3.53,3.31-6.41,3.73-10.07C187.25,50.17,188.33,47.84,190.89,47.63Z"/><path class="cls-20" d="M182,62.26q0,.28,0,.57a79.6,79.6,0,0,1-14.09,0c-2.19-2.44,1-6.79-3.94-8.52,3.15-1.25,5.44-2.27,6.42-5.1.59-1.7,2.61-.83,4-1,3.84-.48,7.85,1,11.58-.93l4.92.32c-1.65,1.18-1.75,4.46-4.9,3.6-2.94,2.24-6.71,1.22-9.86,2.58,2.05.67,5.67-.72,6,2.22.32,3.18-3.48,2-5.34,2.92a2.25,2.25,0,0,0-1.28,1.13C177.24,61.9,180.38,60.11,182,62.26Z"/><path class="cls-21" d="M217,67.23c-.19,1.89.25,4.41,1.38,5,3.15,1.8-.53,2.9.66,4.45-3.23-.91-4.44-5.56-6.41-4.31-2.43,1.54.63,4.48,1.23,6.82,1.12,4.37-.92,6-5,6l-2.91-8.9c-.52-2.89-2.36-4.86-4.56-6.6a2.5,2.5,0,0,1-.71-3.46,2.07,2.07,0,0,1,3.26-.83,5.89,5.89,0,0,1,1,1c2.93,3.44,4.85.65,6.91-1.14,1.13-1,1.07-3.81,3.26-2.9C216.79,63.18,217.33,65.25,217,67.23Z"/><path class="cls-22" d="M211,95.23c1-.07,2.12-.3,2.51-1.31,1-2.63,2.09-3.64,3.47-.28.81,2,2.5,2.08,3.6,1.1,4.68-4.19,3.32.56,3.3,2.31s-.82,3.71-1.4,6.09c2.62-1.58,2.58-3.6,2.5-5.52-.24-5.75.91-11.6-1.28-17.22-.23-.6.34-1.52.54-2.29a44.21,44.21,0,0,1-1,30.19c-1.17.79-.78,3.24-2.75,3-1.47-.19-1.69-1.87-2.25-3a10.3,10.3,0,0,0-1.15-2.18c-2.06-2.27-2.87-4.46,1.45-6.83-3.75.61-3.6,2.63-3.43,4.46s.36,3.46-2.34,2.86a3.65,3.65,0,0,1-1.53-1.7C210.54,101.65,210.12,98.45,211,95.23Z"/><path class="cls-23" d="M204,66.23c-.91-.33-1.88-.92-2.56.32s-.2,2.12.94,2.87c2.5,1.63,4.18,3.72,3.56,7a33.27,33.27,0,0,0-14.06-12.08c.59-.41,1-1,.56-1.62-2.6-3-.67-3.29,2-3.49,4.78-.36,4.78-.47,2.62-4.2-.74-1.28.44-2,1.18-2.09,1.39-.23,2.55-.47,3-2A11.75,11.75,0,0,1,207,54.09a2,2,0,0,1,0,2.71C204,59.35,203.81,62.7,204,66.23Z"/><path class="cls-24" d="M67.93,60.36l-1-1c-.6-.71-1.57-1.21-1.38-2.38A1.5,1.5,0,0,0,66,55.17c-.2-.28-.48-.61-.36-.88,1.2-2.94,1.63-6.1,2.46-9a10,10,0,0,1,5.84-5.45c1.32-.09,2.16,1,3.33,1.31a11.87,11.87,0,0,1,4.87,3.71c1,1.24,1.46,2.36-.15,3.58-2,1.54-3.38,3.85-5.57,5.25-1.71.61-2.51,2.05-3.25,3.56A5.3,5.3,0,0,1,67.93,60.36Z"/><path class="cls-25" d="M27,25.23l3.16-3,1,5.29A61.15,61.15,0,0,1,43,14.95c.34-.28,1.27.16,1.92.27a14.25,14.25,0,0,1,5.87,5c-1.71,2.31-4.1,3.58-6.69,4.72-3.43,1.5-8.38,1.71-7.35,7.67.11.64-.95,1.25-1.76,1.52l-2.09-1.65a37.44,37.44,0,0,0-6.16-5.1v.1A1.91,1.91,0,0,1,27,25.23Z"/><path class="cls-26" d="M189.09,87.17c5,4,6,7.5,3,11.26s-9.11,3.38-14.18-.89C178.32,92.27,182.22,88.66,189.09,87.17Z"/><path class="cls-27" d="M128,48.23c-.74-3.5-5-6.33-.73-10.76,2.94-3-.45-5-3.27-6.24-1.92-3.54-4-7-2.76-11.34,2.84-2.83,3.51,0,4.26,1.8,1.16,2.75,2.26,2.9,3.75.33,1.37-1.74,2.74-3.4,3.77.23-5.05,10.41-4.2,17,3.22,24.84-1.73,1.91-4.37.69-6.32,1.86A2.24,2.24,0,0,1,128,48.23Z"/><path class="cls-28" d="M35,34.14c.63-1.79,2.69-4-1.74-4.18,5.43-4.76,11.82-6.64,17.54-9.72,1.74,1.32,4,1.91,5.24,4-1.46.82-4.5-.28-3.82,3.14a21.63,21.63,0,0,0-4,4.22c-2.6.92-5.55,1.4-6.26,4.8-1.4,1.16-2.78.62-4.16,0C36.73,35.75,35.56,35.34,35,34.14Z"/><path class="cls-29" d="M127,105.23c2.27-.78,6-1,6.49-2.46.8-2.26-4.18-2.68-4-6.06,2.67,0,4.84.82,6.29,3.1.57.9,1.31,1.74,2.36,1s.13-1.74-.25-2.58c-.13-.29-.47-.49-.6-.77-.65-1.49-4.07-2.21-1.58-4.54s3.11.47,4.31,1.8c1.07,1.18,1.16,1.09,3-1.64l1.05.84c1,2.23,3.87,2.81,4.6,5.26a2.42,2.42,0,0,1-2.09,2.9c-2.65.44-5,1.69-7.62,3,.44,1.27,2.68,2.62.88,4.55a2.9,2.9,0,0,1-3.3-.16,12,12,0,0,0-8.28-2.67C127.48,106.82,126.65,106.39,127,105.23Z"/><path class="cls-30" d="M133,22.24c-1-1.36-2-1.43-3,0-4.11-.51-3.52-3.14-3.14-6.15.43-3.41,4.14-5.79,2.77-9.64-.19-1.13.65-1.65,1.35-2.25h0a6,6,0,0,1,4.29-.59c3.12,3.39,3.44,7.86,4.66,12,0,.22.09.45.13.68Z"/><path class="cls-31" d="M206,.27c3.15-.06,6.3-.15,9.45-.15.91,0,2.31-.53,2.61.66s-1,1.91-2,2.53a5.47,5.47,0,0,0-2-1,8.39,8.39,0,0,1,2,1,55.08,55.08,0,0,1-8.23,9.93,1,1,0,0,1-1.22.15c-3-.5-5.38-2.59-4.87-5.23S201.92,1.42,206,.27Z"/><path class="cls-32" d="M189.09,87.17a23.65,23.65,0,0,0-11.23,10.37l-3.92-3.16c-1.52-1.18-1.72-2.47-.92-4.31,1.33-3,3.79-5.25,5.41-8.12,1.43-2.51,3.58.46,5.35,1.28C185.63,84.45,187.94,85,189.09,87.17Z"/><path class="cls-33" d="M67.93,60.36c2-1.25,4.13-2.39,4.93-5,.43-1.38,1.27-2.64,3.14-2.18.94-.5,1.73,0,2.53.4,1.78,1.31,4,2.08,5,4.37-.43,5.12-2,6.83-6.49,7.23l-1.12,1.21C72.85,64.9,70.48,62.51,67.93,60.36Z"/><path class="cls-34" d="M58.13,25.9a38.29,38.29,0,0,1,9.07,7.24,2.25,2.25,0,0,1-1.12.77,17.82,17.82,0,0,1-3.89.54c-2.87-.17-1.65,1.5-1.42,2.78a2.93,2.93,0,0,1-.48,2,1.85,1.85,0,0,1-1.27.36c-2.92-1.12-2.36,1-2.32,2.54-.85,2.39-.48,5.52-3.85,6.39l-1-.95c-.4-1.3-2.09-1.64-2.31-3.07a6.43,6.43,0,0,0-1.22-4.9c-.83-1.38-.9-2.65.56-3.68,4.44-1.21,7.41-3.77,8-8.59A1.82,1.82,0,0,1,58.13,25.9Z"/><path class="cls-35" d="M40.92,75.39c-2-6.83-.82-13.81-.75-20.71,0-1.76,1.28-.24,1.9.31a30.36,30.36,0,0,0,5.57,4.67c1,.56,2.52,1.79,2.25,2.35-1.42,2.92.75,1.49,1.7,1.59,1.59.17,2.55,1.34,3.6,2.35,0,4-2.77,1.42-4.29,1.81-1.94-.43-3.78.23-5.67.47-.9,0-2.2-.58-1.89,1.27C42.35,71.39,43,73.94,40.92,75.39Z"/><path class="cls-36" d="M40.92,75.39C42.09,73.5,40,70.5,43,69.23c1.57-.77,2.48.81,3.77,1.08-.52-1.09-2.36-1.38-1.77-3.07,2,0,4-2.29,6,0,1.1,1.14,1.77,2.39,1,4-.24.78-.23,1.9-.76,2.3-4.35,3.26-3.89,7-1.36,11.06C46.26,82.14,42,80.29,40.92,75.39Z"/><path class="cls-37" d="M152.92,78.26c-3.25-2-6.49-4-9-7,1.8-3.16,4.91-5.86,2.7-10.23-.81-1.6.71-2.65,2.32-3,3,1.19,6.64,1.81,5.94,6.43.94,4.73-1.35,9.26-.81,14A.8.8,0,0,1,152.92,78.26Z"/><path class="cls-38" d="M88,95.23c-.73,3.2-2.58,4.3-6,4.12-3.05-.17-6.6-1.34-9,1.89a1.65,1.65,0,0,1-2.19.07l-.91-.89c.28-.6.52-1.22.86-1.79.93-1.61-1.21-3.87-.84-3.84,3.62.33,5.49-3.64,8.91-3.38.41,0,.78.55,1.17.84,2.4,3.92,2.82,0,4-1a2,2,0,0,1,1.93-1l0,0C87,91.77,86.91,93.75,88,95.23Z"/><path class="cls-39" d="M207,127.24c-4.29,3.23-9.42,4.28-14.5,4.58-9.9.59-19.85,1.39-29.72-.51,1-1.62,2.58-2,4.27-2.29,3.44-.13,6.78,1.11,10.23.83a46.64,46.64,0,0,0,18.43-2.5c3-1,2.31-3.71,3.87-5.2,3.89-2.11,5.54,0,6.43,3.45A7.89,7.89,0,0,1,207,127.24Z"/><path class="cls-40" d="M207,127.24l-2,0a2.54,2.54,0,0,1,.69-2.74c2.64-3.1,1.07-4.55-2-5.54-1.94-1.21-4.27-1.79-5.89-3.54-.19-2.27,2.39-1.87,3.13-3.25l0,0a1.34,1.34,0,0,1,1.16-.29,10.55,10.55,0,0,0,2.9.92c1.2.64,1.64-.8,2.56-.94a5.53,5.53,0,0,1,5,4.15c.6,2.68,2.55,2.55,4.27,3.19A22.19,22.19,0,0,1,207,127.24Z"/><path class="cls-41" d="M58.13,25.9C59.71,30.69,55,32.6,53.41,36c-.75,1.61-2.87.83-4.42.27-2.35-.2-5,1.72-7-1-.49-5.07,3.28-3.74,6-4a3.2,3.2,0,0,1,2.66-.95c3.08.13,2-1.53,1.34-3.05-.56-1.33-1.53-2.6-.52-4.29L56,24.19Z"/><path class="cls-42" d="M205,113.23c-1.28.53-2.74,1.64-3-1,.65-1.65,2.53-2.49,2.87-4.35l4-10c1.89,1.55,1.39,3.79,1.68,5.8.12,2-2.29,2.71-2.67,5,4.26-2.12,6.56.57,8.69,3.19,1.14,1.39,2.45,2.58,3.76,2.35a10.4,10.4,0,0,1-3.45,4.92c-2.77,1.43-5.15,2.76-5.15-2.46,0-2.17-2.58-3.55-4.71-4.51A2.5,2.5,0,0,1,205,113.23Z"/><path class="cls-23" d="M217,67.23l-2.34-4.32c-3.49,7.25-7,8.63-10.66,4.32,1.81-.72,1.37-1.92.74-3.23-.7-1.47-1.9-3.09,0-4.42s3.77-3,6.34-1.59a10.55,10.55,0,0,0,2.22,1.12c2.52,2.26,5.41,4.27,5.62,8.13Z"/><path class="cls-43" d="M166,.27l4,0c5.64,1.06,6.94,3.92,4.27,9.43-1.47.71-2.24,2.31-3.73,3a23.48,23.48,0,0,1-4.5-.12C163,8.58,163,4.35,166,.27Z"/><path class="cls-44" d="M149,58.23c-.49,1-2.42,1.41-1.25,3.23,3.2,4.93-.27,7.39-3.79,9.79a16.39,16.39,0,0,1-6.14-4.82l.35-.61c2.86-.88,2.37-3.74,3.09-5.72.88-2.43,2-4.08,4.65-4.33a3.2,3.2,0,0,1,2.92,1.77Z"/><path class="cls-45" d="M167,130.22l-4.18,1.09a11.7,11.7,0,0,1-7.94-3c2-1.61,4.43-2.44,6.56-3.78,2-.17,2.84-1.64,3.45-3.31,2.93-1.84,6.32-1.38,9.51-1.93a3.4,3.4,0,0,1,1.4.59c.86,1.19-.08,1.75-.83,2.38-1.77,1-3.34,2.34-3.7,4.31C170.8,129.1,169.06,129.74,167,130.22Z"/><path class="cls-46" d="M220.3,114.29c-1.81.28-2.45,2.06-4.25,3.32.55-3.81-.73-6.39-3.86-8.07-.74-.4-1.24-1.17-2-.36-1.12,1.17-2.46,3.27-3.77,1-1.14-1.95-.06-4.16,2.45-5.07a4.7,4.7,0,0,0,1.14-.9c-.26-.5-.12-1.06.37-1.07,1.32,0,.93,1.49,1.63,2.07l1,1c2.22,2.43,3.12-1.73,5-1a10.1,10.1,0,0,1,1.24,2.51c.8,4.37,2.45,1.86,4,.55C222.7,110.51,222.13,112.7,220.3,114.29Z"/><path class="cls-47" d="M198,115.23a11.14,11.14,0,0,1,6,3c.14,2-1.49,2-2.69,2.21a32.09,32.09,0,0,0-7.56,2.47,35.48,35.48,0,0,0-8.62,1.12c-2.38.64-5.61,1.72-6.54-2.4,3.55-2.35,7.53-3.83,11.43-5.46a.56.56,0,0,1,.69-.05C193.19,116.24,195.52,115.15,198,115.23Z"/><path class="cls-48" d="M171,12.23c-.23-2.23.78-3.21,3-3a2.79,2.79,0,0,0,1.7-3.58c-1-3.82.37-5.6,4.44-4.92A2.17,2.17,0,0,0,182,.27h3c.45,1.12-.48,1.83-.8,2.73-1.3,3.7-2.21,7.34,2.11,9.85a1.15,1.15,0,0,1-1.16.85A52.76,52.76,0,0,1,171,12.23Z"/><path class="cls-49" d="M161,47.3c-1.34,1.47-3.13.65-4.7,1-1.39.27-4.55-1.53-2.82,2.7.67,1.65-2.79,1.11-3.78,2.91.76,1.53,2.9,2.36,3.32,4.35a2,2,0,0,1-1.21.55c-1.14-.24-2-1-3.09-1.43-2-2.31-5.42-3-6.86-6-.66-1.42-1.06-2.83.16-4.17Z"/><path class="cls-50" d="M130,48.23c1.71-2.38,4.22-.43,6.24-1.15a.94.94,0,0,1,.78.11,3.3,3.3,0,0,1,.69,1.15,6.71,6.71,0,0,0,.65,1.84c2.77,3.72,4.85,7.26-.18,11-1.61,1.19,1.37,3.32-.12,5l-.23.26a16.48,16.48,0,0,1-5.8-4.36l0-2.83c2.64-2.92,2.7-5.62-.54-8.21C130.64,50.38,129.5,49.67,130,48.23Z"/><path class="cls-51" d="M183.79,83.23c-2.53-1-4.41-2.25-5.84,2.09-1,3-5.45,4.69-4,9.06a10.72,10.72,0,0,1-5.05-3.93c-1.26-2.12,1.11-4.07.27-6.18.45-4.48,3.46-1.49,5.3-1.71.51-1.18-.44-1.88-.66-2.78a2.12,2.12,0,0,1,0-1.39c1-1.07,2.18-.73,3.33-.23A16.32,16.32,0,0,1,183.79,83.23Z"/><path class="cls-52" d="M144,117.24c4.26,2.12,8.78.58,13.17.88.91.06,1.47-.58,1.74-1.48,1-3.45,2-3.45,3.26,0,.59,1.55,8.2,2.43,9,1.17,1-1.47-.27-2.13-1.43-2.43-3-.78-5.11-2.34-5.66-5.55,3.88,3,7.92,5.59,12.85,6.46.15,2.23-1.55,3-3.12,3.17-10.3,1.33-20.62,2.45-30.92,0a3.6,3.6,0,0,1-2.34-1.94A2.28,2.28,0,0,1,144,117.24Z"/><path class="cls-53" d="M164,68.22l1,1.1c1.28.66,2.25,1.78,1.81,3.14-1.13,3.41,0,6.76-.1,10.13a3.25,3.25,0,0,1-3.45,2.27c-1.2-.36-2.24-1.08-3.41-1.52v.06c-.51-.77-1.38-1.24-1.72-2.13-1-2.86-1-5.48,2-7.22,1.26-.74,1.27-1.69.84-2.89a2.53,2.53,0,0,1,1.06-3.37A2,2,0,0,1,164,68.22Z"/><path class="cls-54" d="M186,13.07q0-.42,0-.84c-1.87-4-1.27-8,0-11.94h7a7.66,7.66,0,0,1,.27,5.25c-.75,2.62-1.19,4.88.79,7.17.55.64-.54.9-1.15,1C190.61,13.39,188.2,14.44,186,13.07Z"/><path class="cls-55" d="M142.91,119.37c8.55,0,17.1-.17,25.65,0,3.31.05,6.16-.53,8.4-3.09l1.08.1c1.18,2.28,1.18,2.28-3.05,3.89-3.25,1.08-6.86.34-10,2-2.57,2.16-5.32,1.07-7.88.18a9.21,9.21,0,0,0-8.42.76l-.74.11A16.31,16.31,0,0,1,142.91,119.37Z"/><path class="cls-56" d="M163,84.23a3,3,0,0,0,3-2c.93-1.89,2.45-3.55,2.92-5.56.81-3.39,2.31-2.93,4.35-1.21.49,1.21,0,2.61.72,3.78h0c.33,2.08-.89,2.49-2.61,2.53s-2.53.74-1.39,2.47c2.39,2.56-.9,4.11-1.1,6.22A17.06,17.06,0,0,1,163,86.09,1.18,1.18,0,0,1,163,84.23Z"/><path class="cls-57" d="M127,105.23c5-1,8.61,2.86,13,4a1.89,1.89,0,0,1,.38,2,6,6,0,0,1-2.63,2.48c-2.9.44-3.62-3.11-6.15-3.36A62.17,62.17,0,0,1,121,102.21C123.05,103.17,126.32,101.64,127,105.23Z"/><path class="cls-58" d="M91,107.23c2-.09,2-1.55,2-3,.83-2.39,3.7-2.21,5-4q0-.44,0-.87c2.45,1.08,4.88,2.19,6.08,4.84l-2.08,2c-2.12,3.46-5.94,3-9.13,3.73C91.39,110.31,89.89,109.33,91,107.23Z"/><path class="cls-59" d="M162,13.25l-7,0a1.07,1.07,0,0,1-.33-.81c0-.3.05-.45.11-.45,2.52-3.12,3.74-6.24.22-9.54a1.46,1.46,0,0,1,0-2.2h6C164.21,4.37,164.29,8.72,162,13.25Z"/><path class="cls-60" d="M206,.27c-4.74,5.9-4.49,9.09,1,12.83-1.42,1.19-3.08.4-4.62.58-1.47-.62-3.2-.18-4.61-1.1-2.34-2.57-2-5.06.47-7.22,1.68-1.44,2.37-3.5,3.75-5.1Z"/><path class="cls-61" d="M173,76.23c-.88-.69-2.71-2.43-2.67-.47.07,3.62-2.69,4.49-4.33,6.47-3-4.09,1.2-8.74-1-12.9,4,1.27,6.82,4.18,9.77,6.92A1.21,1.21,0,0,1,173,76.23Z"/><path class="cls-62" d="M155,12.23v1l-4.83,0c-1.17.51-2.31.77-3.34-.29.58-3.47-.78-7.64,3.83-9.42-1.08-1.53-2.7-1.11-3.61-2A1,1,0,0,1,147,.3l7,0C156,4.12,153,8.38,155,12.23Z"/><path class="cls-63" d="M198,12.22c1.37.13,2.88-.4,4,.85a10.62,10.62,0,0,1-8,0c-2.48-1.48-5.12-2.76-2.19-6.29C193.3,5,191.12,2.2,193,.28h5a11,11,0,0,1-1.59,6.08C194.88,9.09,196,10.68,198,12.22Z"/><path class="cls-64" d="M155,12.23c-1.27-.81-1-2.69-2.58-3.4-.84-.39-1.74-1.68-.49-2.23,3.26-1.43,1.65-4.15,2.07-6.33h1c2.14,2.89,5.19,5.44,2.94,9.75A3.35,3.35,0,0,1,155,12.23Z"/><path class="cls-65" d="M198,12.22c-3.94-.31-4.8-2.39-2.88-5.56,1.23-2,.25-5,2.87-6.39l4,0c0,2.25.41,4.44-2.56,5.66S197.11,9.79,198,12.22Z"/><path class="cls-66" d="M186,.29c1,4,0,8,0,11.94-5.43-.37-6.44-3.22-3.21-9.4A14.51,14.51,0,0,1,185,.28Z"/><path class="cls-55" d="M162,125.23c-2.16,1.52-4,3.7-7.12,3a20.26,20.26,0,0,1-6.92-5l.22-.17c4.17-2.2,8.45-.89,12.68-.31C162.33,123,162.88,123.82,162,125.23Z"/><path class="cls-67" d="M213.32,59.11c-.94-.2-1.9-.34-2.83-.6-2.46-.71-4,1.26-5.56,2.34-.93.65.68,2.55,1.44,3.74.57.89,2,1.48.74,2.81-1.09,1.16-2.08.19-3.1-.17q0-.5,0-1c-2.34-3.53-2.26-6.61,1.57-9.13a3.58,3.58,0,0,0,1.48-3A16.3,16.3,0,0,1,213.32,59.11Z"/><path class="cls-68" d="M175,120.23c-.21-2.26,4.2-.89,3.05-3.89l12-.17c-3.46,2.15-6,6.22-11,5.06-1.45,1-2.32.29-3-1Z"/><path class="cls-69" d="M194,13.07h8l5,0a5.84,5.84,0,0,0,.84.13c-1,1.22-2.46.75-3.71.75-13.05,0-26.11.26-39.15-.7-.27-.93,0-1.3,1-1.05h5c5.06-.72,9.95,1.63,15,.85Z"/><path class="cls-70" d="M95,55.18a6.41,6.41,0,0,1-7,0c-4.66,1.37-5.73.63-6-4.15,1.14-2.21,2.73-2.6,4.92-1.4a40.28,40.28,0,0,0,4.32,2.44C92.67,52.93,94.2,53.61,95,55.18Z"/><path class="cls-71" d="M166,12.22l-1,1.05-3,0a47.78,47.78,0,0,0-1-13h5A18.84,18.84,0,0,0,166,12.22Z"/><path class="cls-72" d="M91.23,52.13c-2,.16-3.46-1-5.06-1.84s-2.51-.7-3.19.94c-1.95.53-2.32,3.68-5,3l-2-1c1.46-3.21,5.62-4.47,6.11-8.39A43.75,43.75,0,0,1,91.23,52.13Z"/><path class="cls-73" d="M66,57.23l.95,2.13c-4.75-2.86-8.86-6.54-13.11-10.05a7.46,7.46,0,0,1,4.1-3.51,9.47,9.47,0,0,1,5,1.86c1,.71,1.77,1.61,1.35,2.93-.48,1.48-1.79,1-3,1C63.15,53.35,65.21,54.77,66,57.23Z"/><path class="cls-74" d="M66,33.24l1.22-.1a44.87,44.87,0,0,1,10,8L74,40.23a5.54,5.54,0,0,1-3.07-1.37c-1.86-1.56-3.37-1.4-5,.46-1.25,1.44-2.63,3-5,2.32-.83-.59-1.48-1.27-1-2.4q0-1,0-2C61.56,35.26,63.87,34.4,66,33.24Z"/><path class="cls-75" d="M42,35.23c2.18,1.38,5-1.46,7,1a2.64,2.64,0,0,0,0,3c-2.16.16-1.13,2.34-2.07,3.28-1.25.14-2.06-.85-3.12-1.2l-6-5C39.22,36.05,40.88,36.72,42,35.23Z"/><path class="cls-76" d="M116,44.22c-4.48-10.27-3.73-20,2.89-29.2a2.53,2.53,0,0,1,.73,2.35c-3.46,7.19-3.91,14.75-2.77,22.52a5.21,5.21,0,0,1-.73,4.23Z"/><path class="cls-77" d="M5.89,6c2.41,2.46,5.58,2.84,8.76,3.21,1.65.19,3.88-.81,4.34,2-1.5,1.56-3.46,1.27-5.33,1.32a16,16,0,0,1-3-.33c-2.42-.7-5.25.7-7.39-1.45l-.35-.61C3.17,8.25,4.48,7.1,5.89,6Z"/><path class="cls-78" d="M212,105.23c-.9.14-.65-2-2-1-1.88-1.83-.55-4.25-1.16-6.32q.1-5.33.21-10.67c2.54,2.2,1.85,5.19,2,8C212.76,98.42,211.71,101.89,212,105.23Z"/><path class="cls-79" d="M104.49,127.39c2.73.07,4.07-1.22,3.31-3.92-1.45-5.15-.61-10.37-.69-15.56,2.86,4.2,1.09,8.93,1.5,13.41.25,2.74,0,5.53,0,8.72A5.86,5.86,0,0,1,104.49,127.39Z"/><path class="cls-80" d="M17,124.25c-.13-2,.35-4-1.13-5.72-.92-1.07-1.48-2.66-.28-3.57,1.51-1.15,1.08,2.36,2.95,1.55.89-2.34.27-4.83.37-7.27-1.4-1-2.36-2.06,0-3.06a2.43,2.43,0,0,0,.77-.06c0,4.4.24,8.82,0,13.21C19.55,121.12,19.15,123.3,17,124.25Z"/><path class="cls-81" d="M164,68.22h-2c-2.92,0-5.53-1.35-8.3-2a1.85,1.85,0,0,1,.3-1.95c.86-4.11-3.86-3.56-5-6h0q-.44-.4-.27-.77t.33-.36L152,58.24a29,29,0,0,1,7,5C160,65.55,163.11,65.78,164,68.22Z"/><path class="cls-82" d="M119,17.23,118.9,15A23.57,23.57,0,0,1,131,4.19l-1,2c-1.16,3-3.91,4.87-5.55,7.54C122.55,14.79,121.54,17.23,119,17.23Z"/><path class="cls-69" d="M182,.27a2.78,2.78,0,0,1-2.69.94c-2.41-.15-3.22.52-2.52,3.18.54,2.05,1.18,5-2.77,4.83.48-3.8.82-7.54-4-9Z"/><path class="cls-83" d="M55,66.25a13.94,13.94,0,0,0-1.62-1.1C50.75,63.86,44,57.78,42.07,55A108.37,108.37,0,0,1,57.74,67.25l-.76,0C55.86,67.82,55.47,66.95,55,66.25Z"/><path class="cls-84" d="M60,39.23l1,2c1.15,3-1.37,3.71-3,5-1.24,1.23-2.43,2.53-4.17,3.08l-1-.8c1.81-1.71,1.8-4.33,3.14-6.28a10,10,0,0,1,3-3Z"/><path class="cls-85" d="M148,99.23c-.72-2.2-4.46-2.16-3.9-5.3,3.52,2.43,7.07,4.81,10,8l1.93,3.3-.46.48a3.64,3.64,0,0,1-3.23,0,2.45,2.45,0,0,1-.88-1C150.31,102.91,148.86,101.25,148,99.23Z"/><path class="cls-86" d="M147,12.23c.76,1.22,2,.93,3.17,1.08-1.81,1.32-4,.71-6,1.15l-.67-.17c-2.49-2.54-2.27-6,.7-10.84a2.78,2.78,0,0,1,1.15-.72c1.8,0,2.76,1.2,1.85,2.45C145.42,7.65,146.85,9.89,147,12.23Z"/><path class="cls-87" d="M100.94,86.24c2.33-.3,4.1,1.13,6.05,2,.9,2.31,4.06,3.15,4,6.11Z"/><path class="cls-88" d="M47,42.23c-.41-1-1.42-2.3-1.1-2.94.67-1.38,2,.22,3.12-.07,2.14,1.31,2.83,2.9,1,5a1.28,1.28,0,0,1-1.94,0l-1-.9a.66.66,0,0,1-.29-.71Q46.85,42.23,47,42.23Z"/><path class="cls-89" d="M88,95.23c-2.79-.78-2.66-2.76-2-4.95,2.85,0,4.33,2.1,6.06,3.83q.44.4.26.76t-.33.36C90.64,94.71,89.32,93.41,88,95.23Z"/><path class="cls-80" d="M10,129.16c1.29-1.94,3.72-3.41,1.62-6.57,2.6.31,3.61,2.2,5.4,1.66C15,126.38,13,128.51,10,129.16Z"/><path class="cls-90" d="M1,127.16c1.24,2.28.12,5.35,2.44,7.27-1.71,1.68-3.28,2.88-3.23-1,0-2.11.1-4.22.15-6.33A1.29,1.29,0,0,0,1,127.16Z"/><path class="cls-91" d="M198,115.23a7,7,0,0,1-7.29.89l10.25-4C200.64,113.81,198.74,114,198,115.23Z"/><path class="cls-92" d="M159,63.26c-3-.72-4.9-3-7-5l1,0c2.7,1.44,5.68,2.39,7.89,4.66Z"/><path class="cls-21" d="M224.22,78.14c-3.22-2.67-3.32-6.89-5.13-10.27C222.92,70.24,223.49,74.23,224.22,78.14Z"/><path class="cls-85" d="M131.6,110.36c2.84-.62,3.76,3,6.39,2.87,1.91.22,3.47.77,3,3.21a1.86,1.86,0,0,1-2.08-.19A27.2,27.2,0,0,1,131.6,110.36Z"/><path class="cls-86" d="M147,.3q0,.46,0,.92c-.34,1-1.42,1.25-2,2h0a5.49,5.49,0,0,1-5.84-.67A1.3,1.3,0,0,1,139,1.27C141.53-.09,144.27.21,147,.3Z"/><path class="cls-93" d="M137.15,48.15a8.48,8.48,0,0,0-.14-1h5l.91,4.19c-1.16.82-2.14.21-3.14-.36C138.81,50.16,137.54,49.56,137.15,48.15Z"/><path class="cls-94" d="M74.93,104.27c3.85.55,6.23,3,8,6.22A34.17,34.17,0,0,1,74.93,104.27Z"/><path class="cls-95" d="M87.86,114.48A3.8,3.8,0,0,1,90,112.22a2.07,2.07,0,0,1,2,1,5.47,5.47,0,0,1-.94,3.72Z"/><path class="cls-96" d="M159,81.22l.89,2.18a20.75,20.75,0,0,1-6.95-5.14L154,78.2a1.59,1.59,0,0,1,1.25-.42C157.43,77.91,158.32,79.44,159,81.22Z"/><path class="cls-82" d="M139,1.27q0,.48,0,1l-.21.62a3.31,3.31,0,0,1-2.15,1.39H136l-5,0C133.2,2,136.22,2,139,1.27Z"/><path class="cls-97" d="M128,82.27c-2.34-.39-3.79-1.63-3.93-4.12a12.22,12.22,0,0,1,5.11,4Z"/><path class="cls-98" d="M92,95.23,92,94.11c1.92,1,4,1.93,4.86,4.15C94.5,98.45,93,97.19,92,95.23Z"/><path class="cls-99" d="M26.75,27.38a8.65,8.65,0,0,1,6.16,5.1C30.57,31.13,28.21,29.81,26.75,27.38Z"/><path class="cls-100" d="M110.25,67.13A5.68,5.68,0,0,1,105,63.31C107.46,63.57,108.66,65.63,110.25,67.13Z"/><path class="cls-97" d="M119,76.23l0-2.12a11.86,11.86,0,0,1,5,4.07C121.83,78.94,120.9,76.31,119,76.23Z"/><path class="cls-101" d="M173,76.23h1.79l2.39,1.92c-1.14.13-2.41-.15-3.19,1.07C172.92,78.47,171.21,77.93,173,76.23Z"/><path class="cls-102" d="M56.9,90.26l4.09,1,1,2.94A16.22,16.22,0,0,1,56.9,90.26Z"/><path class="cls-103" d="M48.05,44.21l1.94,0c.69,1.07,2.31,1.62,1.87,3.32C50.32,46.76,48.73,46,48.05,44.21Z"/><path class="cls-91" d="M204.86,107.91c.25,2.25-1.21,3.36-2.87,4.34l-1.08-.09Z"/><path class="cls-77" d="M2,15.23H1.06a6.12,6.12,0,0,1,1.85-5.07l.2.19C4.35,12.35,4.29,14,2,15.23Z"/><path class="cls-100" d="M103.84,62.27a5.71,5.71,0,0,1-3.85-2l.05-1.13A6.13,6.13,0,0,1,103.84,62.27Z"/><path class="cls-61" d="M163,84.23l0,1.86a6.11,6.11,0,0,1-3.16-2.75C161,83.24,162.21,83,163,84.23Z"/><path class="cls-104" d="M73.07,79.17c-1.8.28-2.68-1.38-4.08-1.94l.1-1.25A8,8,0,0,1,73.07,79.17Z"/><path class="cls-104" d="M75,82.22c-.62-1-2.23-1.45-1.95-3.06,1.42.84,3.15,1.3,3.76,3.12Z"/><path class="cls-94" d="M70.81,101.3l2.19-.07c.63,1,2.2,1.46,2,3.05A11,11,0,0,1,70.81,101.3Z"/><path class="cls-14" d="M138.95,116.24l2,0a2.25,2.25,0,0,1,2.84-.35.92.92,0,0,1,.17,1.35l0,0-3.42.18A1.77,1.77,0,0,1,138.95,116.24Z"/><path class="cls-30" d="M144.18,14.46A8,8,0,0,1,140,16.29l-.09-.16c.24-2.86,1.95-2.74,4-1.94Z"/><path class="cls-105" d="M47,42.23,47,43.31c-1.78.46-2.32-1.06-3.23-2Z"/><path class="cls-99" d="M27,25.23l-.23,2.25a4,4,0,0,1-2.93-2.19Z"/><path class="cls-106" d="M1,52.25c-.37-6,1.34-12-.19-17.92C3.07,33.58,2.79,36,4,36.23c1.39,1.28.95,2.93.94,4.42.49-1.6,2-4.46,3.07-2,2.25,5.1,5.22,1.61,7.84,1.7,1.08,0,1.76-1.55,3.1-1.09v10c-2,2.57-4.86,2.18-7.58,2.43s-5.79-.17-6.7,3.56a1.26,1.26,0,0,1-1.48,1C.88,55.77,2,53.45,1,52.25Z"/><path class="cls-107" d="M1.06,88.23q0-7.49,0-15c2.52.5,4.94,3.53,7.6.29A10.7,10.7,0,0,1,11.23,73a20.35,20.35,0,0,1,2.5-.3,4.65,4.65,0,0,0,2.35-.45c.92-.41,1.62-1.47,2.84-1l0,15a1,1,0,0,1-1.26,0c-1-1.14-1.06-2.78-2.07-4-1.3-.14-1.83,2.19-3.28,1.28-2.76-1.71-2.92.3-3.39,2.14a3.93,3.93,0,0,1-4.35,3.23C3.52,88.06,2.09,89.29,1.06,88.23Z"/><path class="cls-108" d="M18.95,39.27c-1.13,1.8-2.07,3.91-4.9,2.61a1.55,1.55,0,0,0-1.4.15c-6.19,6.29-3.53-2.21-5.48-3.25-2.63,1,.25,4.63-3.17,5.82,0-3,0-5.66,0-8.37,2.25.08,4.43-.05,6-2a2.74,2.74,0,0,1,0-4c1.33-.22,2.66-1,4,0,3.74-1.12,5.61-.07,5,4.15A38.72,38.72,0,0,0,18.95,39.27Z"/><path class="cls-109" d="M1,52.25l2.72,4.52C3.1,49,8.58,51,11.82,50.26c2.25-.49,4.75-.56,7.12-1q0,4.5,0,9c-.47.69-1,1.69-1.86,1.4-4.63-1.52-8.82.67-13.19,1.38-2,.15-2.22-1.49-2.83-2.75Z"/><path class="cls-110" d="M1.05,105.23q0-4.5,0-9c6.06.19,11.77-2.81,17.9-2v7a3.3,3.3,0,0,1-2.69,1.91,43.35,43.35,0,0,0-11.05,2.6C3.76,106.29,2.32,106.4,1.05,105.23Z"/><path class="cls-111" d="M19,94.24c-5.89,1.33-11.6,4.36-17.9,2q0-4,0-8c1,.31,2-1.16,2.93,0,5.15,2.72,9.58.43,14-2h1Q19,90.23,19,94.24Z"/><path class="cls-112" d="M1.05,105.23c6-1.26,11.79-3.36,17.92-4q0,2.47,0,4.95c-1.49,1-.23,2,0,3.06H18c-4.19.73-8.58-.16-12.14,3.85-2,2.27-4-.47-4.8-2.83Z"/><path class="cls-113" d="M4,60.23c4.7-2.79,9.82-2.42,15-2q0,1.51,0,3c-.93,2-1.18,4.21-2.61,5.94-.77.52-1.53.2-2.29,0-1.48.15-1.09,2-2.21,2.45a2.76,2.76,0,0,1-2.06,0c-.59-.32-1-.86-1.54-1.21C6.49,67.33,7.69,63.6,3.92,64,3,64.1,2.86,61.55,4,60.23Z"/><path class="cls-114" d="M14,30.23c-1-.33-2,1.16-3,0a3,3,0,0,1-.75-3.58c1.48-3.47,0-5.9-2.45-8.13-.94-1.77-1.18-3.44.71-4.78,5.27-.28,5.72,4.26,7.49,7.49A13.52,13.52,0,0,1,14,30.23Z"/><path class="cls-115" d="M16,21.23c-2.48,0-2-2.62-3.16-3.8S11.24,14.16,9,14.23c-.63-1.32,0-2.24,1-3h3c1.78,1.32,2,3.7,3.52,5.19.86.91,2.15,1.44,2.48,2.81.09.67,1.11,1.33,0,2q-.5.76-1,0Z"/><path class="cls-116" d="M16,67.23c-.26-2.6,1.45-4.22,2.94-6q0,5,0,10c-1,.64-1.4,2.13-2.93,2C14.31,71.23,14.39,69.23,16,67.23Z"/><path class="cls-117" d="M19,19.23l-3-2c-.73-3.27,1-2.78,3-2l2,3A2.07,2.07,0,0,1,19,19.23Z"/><path class="cls-108" d="M18,21.23h1q0,1.94,0,3.88l-.8.05Z"/><path class="cls-118" d="M77,65.23a9.6,9.6,0,0,0,6-7c2-.92,4-1.29,6,0,.15,2.91-.14,5.92,2.48,8.12a1.24,1.24,0,0,1-.17,1.8c-1,1-1.36-.25-2-.56a4.25,4.25,0,0,1-2.51-2.16c-.77-1.78-2.2-1.28-3.14-.1C80.85,68.85,80.27,68.89,77,65.23Z"/><path class="cls-119" d="M89,58.23c-2-.35-4,1.62-6,0l-5-4c1.83-.72,2.32-3.68,5-3-.78,4.4,2.33,3.93,5,4Z"/><path class="cls-120" d="M119,17.23c1.39-1.68,2.82-3.31,5-4,2.1,2.92.39,4.57-2,6-1.2,4.31,2.83,7.75,2,12-5,1-6.71,4.13-6.06,9,.19,1.43.78,3.52-1.8,3.87-.87-6.95-2.18-13.88-.17-20.87A13.07,13.07,0,0,1,119,17.23Z"/><path class="cls-121" d="M130,48.23a45.08,45.08,0,0,1,3.62,3.35c3.53,4,3.33,4.86-1.62,7.65-.55-.56-1.65-1.52-1.57-1.63,1.84-2.55,1.06-3.73-1.72-4.91a2.6,2.6,0,0,1-.72-4.46Z"/><path class="cls-122" d="M107,87.23c.3-4.08,3.44-1.06,5-2a18.9,18.9,0,0,1,2.26,1.91c1.25,1.43.65,3-.43,4s-2.15-.09-3-.74C109.47,89.43,108.26,88.3,107,87.23Z"/><path class="cls-123" d="M19,15.23c-1.45,0-2.91,0-3,2-2.44-1.28-2.29-3.85-3-6h6C21.27,12.56,17.05,13.9,19,15.23Z"/><path class="cls-95" d="M91,107.23c.13,1.07,1,2.39,1.71,1.82,2.82-2.11,6.6-.64,9.29-2.82.26,3.12-4.92,4.59-2.6,8.44.1.16-1.39.52-2.16.07-1.42-.83-2.83-1.68-4.25-2.52a4.37,4.37,0,0,1-3-2C90,109.13,89.82,107.95,91,107.23Z"/><path class="cls-58" d="M90,110.23a3,3,0,0,1,3,2l-1,1a2.07,2.07,0,0,1-2-1C90.59,111.56,86.62,110.88,90,110.23Z"/><path class="cls-89" d="M84,91.23c.6,3.59-.85,5-4.18,3.93s.14-1.94.18-2.93A6.72,6.72,0,0,1,84,91.23Z"/><path class="cls-124" d="M55,66.25l2,1c-1.61,1.39-1.59,4.82-5,3.94a6.64,6.64,0,0,1-1-4C52.09,65.92,54.26,69,55,66.25Z"/><path class="cls-125" d="M98,100.23c-.05,3.35-3.26,2.76-5,4-2.78,1.77-4.58.59-5.94-2-.54-1-.6-1.82.66-2.36.82-.35,1.87-.61,2,.38.67,4.12,2,1.74,3.49.54S96.39,100.36,98,100.23Z"/><path class="cls-85" d="M144,117.22q0-.49,0-1a10.56,10.56,0,0,0-.19-3.67c-.75-6.34-.75-6.34,8.19-7.34h0a2.54,2.54,0,0,0,4,0h0c3,4.28-2.57,5.4-3.34,5.53-3.18.53-5.85.4-5.53,4.89C147.23,117.12,145.36,117.26,144,117.22Z"/><path class="cls-126" d="M1.05,110.25c1.93,1.62,3,4.6,5.84-.12,1.55-2.58,7.14-2.91,11.1-.9-.17.79-.15,2.17-.53,2.29-3.5,1.12-3.61,3.8-3.54,6.76,0,1.67-.81,2.85-3.21,2.76.91-2.73,2.08-5.44.68-8.39-3.3,3.05-7,5.6-5.35,10.79-2.28.69-2.9-3-5-1.24Q1.06,116.22,1.05,110.25Z"/><path class="cls-116" d="M4,60.23c.59,1.16-1.5,4.57,2.65,3.06C7,63.16,8.84,67.15,10,69.23c.84,1.9.25,3.52-1,5-3.32,3.76-4,3.68-7.94-1q0-7.49,0-15C2.06,58.9,2.47,60.4,4,60.23Z"/><path class="cls-127" d="M10,11.23l-1,3q-2.11,2,0,4c.72,1,.53,2-.64,2.27-2.08.41-2.76-1.2-3.43-2.75,1,2.38-.8,5.15,1.08,7.48-.15,1.71.59,4.16-1.77,4.51S2,27.35,1.41,25.84c-1.3-3.56.2-7.07.58-10.61a9.42,9.42,0,0,0,1.11-4.88C5.27,11.71,7.81,10.08,10,11.23Z"/><path class="cls-115" d="M6,25.23c-3.88-3.16-1.22-7.32-2-11.33,2.66.77,1.66,2.78,2.18,4.09.73,1.82,1.64,3.44,2.86.24,6.2,3.08,1.57,8,2,12-1.46,1.05-.86,2.62-1,4-3.49-1-1.54-3.86-2-5.88-.3-1.44-.14-3-.36-4.45-.09-.59-.75-1.3-1.39-.6C5.92,23.71,6.07,24.57,6,25.23Z"/><path class="cls-128" d="M182,62.26c-1.82,0-3.65,0-5.47-.05-1.42-.05-3.2.35-3.37-1.89s1.82-2,3-2.65c1.61-.89,3.66.18,5.46-1.34-2.63-2.54-6.62.41-9.5-2.72A41.24,41.24,0,0,1,186,51.23C187,55.74,183.66,58.71,182,62.26Z"/><path class="cls-78" d="M218,105.23c-3.71,3.76-3.71,3.76-5,1,3-1.1.71-3.38.86-5,.34-3.73,2.6-3.13,4.87-2.81.91.13,1.16,1,1.17,1.9a1.27,1.27,0,0,1-1,1.38C216,102.68,216,102.7,218,105.23Z"/><path class="cls-129" d="M58,46.23c-.37-2.49,3-2.71,3-5a4.39,4.39,0,0,0,3-1.46c5-4.48,5-4.47,10,.46-2.42,1.65-1.63,6.54-7.24,5.67,5,1.36,4.42,3.07,1.91,5.16-3,2.52-3.65,4.42,1.8,4.42-1.65,1.24-3.54.15-4.47,1.74-2-1.67-4-3.38-6-5-.78-.61-2-1.21-1.41-2.22.81-1.34,2-.43,2.95.2a16.35,16.35,0,0,0,2,.88C63.34,47,59.33,48.2,58,46.23Z"/><path class="cls-130" d="M122,19.23c1.33-1.78,2.43-3.64,2-6a15,15,0,0,1,6-7c2.28,1.25,2.69,3,.71,4.67-2.22,1.89-2,4.78-3.25,7.07-.75,1.36.75,3.35,2.53,4.26-.37,1.79-.6,3.82-3,3.87s-1.68-2.41-2.41-3.7S124.1,19.28,122,19.23Z"/><path class="cls-131" d="M52,27.23c1.84.19,3.25,1,2.75,3-.57,2.32-2.29,1.54-3.88,1.11A13.52,13.52,0,0,0,48,31.23C48.34,28.91,49.07,27,52,27.23Z"/><path class="cls-132" d="M152,105.23c-.73.62-1.61,1.88-2.17,1.75-6.36-1.49-5.42,2.48-4.83,6.25-2.54,1.51-4,.42-5-2v-2c.18-2.82-3.42-3.51-3.58-6.12A17,17,0,0,0,148,99.23C148.95,101.48,153.74,101.18,152,105.23Z"/><path class="cls-133" d="M143.92,14.18c-1.66,0-3.14.29-4,1.94-.3-.13-.83-.2-.87-.39-.93-3.86-3.44-7.31-3.08-11.51h0c1.43,0,2.65-.32,3-2l0,0c1.92.81,4.14-.24,6,1C143.92,6.81,141.58,10.27,143.92,14.18Z"/><path class="cls-134" d="M216.08,3.3h-4.81c2.3-2.25,3.62-2.27,4.81,0Z"/><path class="cls-135" d="M66,33.24c-1.15,2.59-3.32,3.66-6,4-.44-1.36-2.49-2.23-1.75-3.81,1.14-2.45,2.29.78,3.61.26S64.48,32.2,66,33.24Z"/><path class="cls-136" d="M59,39.23a2.81,2.81,0,0,1-3,3c-.56-1.62-2.15-3.44.23-4.71C57.6,36.77,58.79,37.47,59,39.23Z"/><path class="cls-124" d="M45,67.23,49.68,71c-3.4,2.71-4.62-1.08-6.69-1.77C41.88,66.78,43.74,67.31,45,67.23Z"/><path class="cls-137" d="M155,78.24l-1,0c-1.92-2.19-2.77-4.46-.24-6.75,1.13-1,.91-1.84.12-2.91-1-1.42-1.44-2.92.11-4.31v2c1.28.84,2.89.63,4.21,1.36,2,1.1,3.45,3.67,2.09,4.78C158.15,74.11,157.27,76.8,155,78.24Z"/><path class="cls-138" d="M176,120.23l3,1c1.5,3.64,4.81,2.47,6.56,1.37,3-1.89,5.6-1.07,8.44-.37,2-.05,4-.88,6,0-.12,3.28-.58,5.17-4.83,6.51A55.11,55.11,0,0,1,178,131.22c2.52-1.54.11-2.41-.31-3.74-.76-2.45-5-2.74-3.7-6.24A2.08,2.08,0,0,0,176,120.23Z"/><path class="cls-139" d="M174,121.23c1.2,2.52,3.71,3.9,5.26,6.3,1.8,2.78-.37,2.67-1.26,3.69-3.75.63-7.3-1-11-1,2.22-.77,2.36-2.9,3.21-4.65S172,122,174,121.23Z"/><path class="cls-140" d="M200,122.23c-2,.87-4,1.91-6,0,2.29-3.93,7-1.85,10-4a20.6,20.6,0,0,1,3.23,1.15c1.75,1,3.11,1.93.52,3.8-1.24.89-1.85,2.66-2.74,4C204.67,124.2,204.29,121.24,200,122.23Z"/><path class="cls-91" d="M205,113.23a2.06,2.06,0,0,1,2-1c0,.89.21,2.51,0,2.56C205.91,115.06,205.44,114.08,205,113.23Z"/><path class="cls-141" d="M137.15,48.15l2.84,2c1.21,2.79,5.41,2.61,6,6-3.42.63-4.66,4.87-4.31,6,1.27,4.3-1.3,3.71-3.64,3.91-2.8-3.42-1.79-6,1.58-8.38,1.56-1.09,2.1-2.5-.3-3.64C136.74,52.92,137.4,50.33,137.15,48.15Z"/><path class="cls-142" d="M146,56.23c-1.62-2.38-5.63-2.39-6-6l2.92,1.19c1.7,2.28,4.78,3.06,6.13,5.71L149,58.23Z"/><path class="cls-143" d="M162,125.23c-1.84-4.06-5.66-1.93-8.26-2-1.79,0-3.71-.18-5.57-.17,1.68-3.52,4.65-3.37,7.62-2.39a22.46,22.46,0,0,0,9.2,1.51C166.9,126.13,163.75,125,162,125.23Z"/><path class="cls-101" d="M170,84.23c-1.81-1-2.18-2.14.06-2.82,1.53-.46,3.22-.35,3.95-2.18a4.22,4.22,0,0,1,2.22,2.46c.4.91.87,1.78,0,2.66-1.13,1.12-2,.39-2.93-.35C172.14,83.12,170.83,80.89,170,84.23Z"/><path class="cls-144" d="M155,78.24c2-1.58,0-2.78-.5-3.74.32-1.22,1.06-1.12,1.67-1.24,1.31-.27,3.36.61,3.55-1.53A2.7,2.7,0,0,0,157,68.47c-1-.09-2-1.45-3-2.24,3.21-1.53,5.54.5,8,2,.41,3.27,1.53,6.57-3,8.4-1.43.58.32,3,0,4.6Z"/><path class="cls-145" d="M140,111.23c1.57.9,2.9,2.42,5,2-.36,1,1.64,2.77-1,3h-3l-3-3A1.83,1.83,0,0,1,140,111.23Z"/><path class="cls-146" d="M145,3.23a1.82,1.82,0,0,1,2-2c1.81,0,3.63-.1,5.28,1.41a26.84,26.84,0,0,1-3,3.67c-1.26,1.1-2,1.43-.32,3.17,1.91,2-1.27,1.78-2,2.74-1.57-1.95-3.69-3.77-1.09-6.46C147.17,4.45,147,3.47,145,3.23Z"/><path class="cls-14" d="M156,105.23a1.86,1.86,0,0,1-2.24,1.93c-1.22-.08-1.63-.86-1.76-1.93Z"/><path class="cls-30" d="M139,2.24c.49,2.9-1.36,2.27-3,2Z"/><path class="cls-147" d="M18,86.23c-2.86,5.33-8.14,6.08-14,2,2.32-.35,4.17-1.13,4-4-.08-1.52,0-3.06,1.78-3.71,2-.76,2,1.69,3,2.34,2-1,.56-3,2.14-4.28C16.61,80.88,18.39,83.05,18,86.23Z"/><path class="cls-116" d="M12,69.23c0-1.09,0-2.18.06-3.27,0-.68.38-1.35,1-1.16.4.11.6.93.89,1.44,1.2,2.33,1.56,4.67,0,7l-2,1A3.64,3.64,0,0,1,12,69.23Z"/><path class="cls-74" d="M14,73.23q0-3.5,0-7l2,1q0,3,0,6Q15,74.76,14,73.23Z"/><path class="cls-74" d="M12,69.23q0,2.5,0,5H9a8.24,8.24,0,0,1,1-5Z"/><path class="cls-76" d="M117.36,25.83a2.69,2.69,0,0,1,2.21,2c.17.73-.33,1.21-1.09,1.26-1,.06-2.15.2-2.07-1.24A6.11,6.11,0,0,1,117.36,25.83Z"/></svg>